<mxfile>
    <diagram id="2uDX2iaPIhSF9GBlLUD8" name="BasicArch">
        <mxGraphModel dx="939" dy="908" grid="1" gridSize="10" guides="1" tooltips="1" connect="1" arrows="1" fold="1" page="1" pageScale="1" pageWidth="850" pageHeight="1100" math="0" shadow="0">
            <root>
                <mxCell id="0"/>
                <mxCell id="1" parent="0"/>
                <mxCell id="2" value="" style="shape=image;verticalLabelPosition=bottom;labelBackgroundColor=#ffffff;verticalAlign=top;aspect=fixed;imageAspect=0;image=https://d33wubrfki0l68.cloudfront.net/2475489eaf20163ec0f54ddc1d92aa8d4c87c96b/e7c81/images/docs/components-of-kubernetes.svg;" parent="1" vertex="1">
                    <mxGeometry x="380" y="350" width="1048.56" height="490" as="geometry"/>
                </mxCell>
            </root>
        </mxGraphModel>
    </diagram>
</mxfile>